<?xml version="1.0" encoding="utf-8"?>
<!-- Generator: Adobe Illustrator 24.3.0, SVG Export Plug-In . SVG Version: 6.00 Build 0)  -->
<svg version="1.1" id="Layer_1" xmlns="http://www.w3.org/2000/svg" xmlns:xlink="http://www.w3.org/1999/xlink" x="0px" y="0px"
	 viewBox="0 0 1200 900" style="enable-background:new 0 0 1200 900;" xml:space="preserve">
<style type="text/css">
	.st0{fill:#E3F3FE;}
	.st1{fill:none;stroke:#45C4FF;stroke-width:3.8471;stroke-miterlimit:10;}
	.st2{opacity:0.5;}
	.st3{fill:#98DEFF;}
	.st4{fill:url(#SVGID_1_);}
	.st5{fill-rule:evenodd;clip-rule:evenodd;fill:#3F7AFF;}
	.st6{opacity:0.3;}
	.st7{fill-rule:evenodd;clip-rule:evenodd;fill:#98DEFF;}
	.st8{opacity:0.8;}
	.st9{opacity:0.4;}
	.st10{fill-rule:evenodd;clip-rule:evenodd;fill:url(#SVGID_2_);}
	.st11{fill:#FCC3FC;}
	.st12{fill:url(#SVGID_3_);}
	.st13{fill:#3F7AFF;}
	.st14{fill:#F7FBFC;}
	.st15{fill:#6A98FF;}
	.st16{fill:#BFD3FF;}
	.st17{fill:#E0E0E0;}
	.st18{fill:#263238;}
	.st19{fill:#EAF0FF;}
	.st20{fill:#003AA5;}
	.st21{fill:#272525;}
	.st22{fill:#6ED1FF;}
	.st23{fill-rule:evenodd;clip-rule:evenodd;fill:#FCC3FC;}
	.st24{fill:url(#SVGID_4_);}
	.st25{opacity:0.9;}
	.st26{fill:none;stroke:#3F7AFF;stroke-width:16;stroke-miterlimit:10;}
	.st27{fill:none;stroke:#45C4FF;stroke-width:16;stroke-miterlimit:10;}
	.st28{fill:none;stroke:#98DEFF;stroke-width:16;stroke-miterlimit:10;}
</style>
<g id="back">
</g>
<g id="Floor">
</g>
<g id="Nuts">
</g>
<g>
	<path class="st0" d="M997.4,744.2c-59.6,0-107.9,8.6-107.9,19.1c0,10.6,48.3,19.1,107.9,19.1s107.9-8.6,107.9-19.1
		C1105.3,752.8,1057,744.2,997.4,744.2z"/>
	<path class="st1" d="M24.5,237.6c1-107.2,88.7-193.3,195.9-192.3S413.8,134,412.8,241.2"/>
	<g class="st2">
		<path class="st3" d="M130.4,221.6v-53.2c29.2,0,53.2,24,53.2,53.2c0,29.2-24,53.2-53.2,53.2c-28.7,0-52.6-23.3-53.2-52
			L130.4,221.6z"/>
	</g>
	<path class="st1" d="M1175.5,662.4c-1,107.2-88.7,193.3-195.9,192.3c-107.2-1-193.3-88.7-192.3-195.9"/>
	
		<linearGradient id="SVGID_1_" gradientUnits="userSpaceOnUse" x1="-2744.874" y1="6265.7852" x2="-2709.438" y2="6265.7852" gradientTransform="matrix(-0.8655 0.5009 -0.5009 -0.8655 1952.821 7449.6392)">
		<stop  offset="0" style="stop-color:#3F7AFF"/>
		<stop  offset="1" style="stop-color:#45C4FF"/>
	</linearGradient>
	<path class="st4" d="M1166,645.2L1166,645.2c8.5-4.9,19.3-2,24.2,6.5l0,0c4.9,8.5,2,19.3-6.5,24.2l0,0c-8.5,4.9-19.3,2-24.2-6.5v0
		C1154.6,660.9,1157.5,650.1,1166,645.2z"/>
	<g>
		<g>
			<g>
				<g>
					<g>
						<g>
							<g>
								<path class="st5" d="M992.2,176c4.3,0.5,8.4,1.6,12.3,3.2l9-7.6l15.5,11.8l-4.9,10.7c2.6,3.3,4.8,7,6.4,11l11.7,1l2.6,19.3
									l-11,4.1c-0.5,4.3-1.6,8.4-3.2,12.3l7.6,9l-11.8,15.5l-10.7-4.9c-3.3,2.6-7,4.8-11,6.4l-1,11.7l-19.3,2.6l-4.1-11
									c-4.3-0.5-8.4-1.6-12.3-3.2l-9,7.6l-15.5-11.8l4.9-10.7c-2.6-3.3-4.8-7-6.4-11l-11.7-1l-2.6-19.3l11-4.1
									c0.5-4.3,1.6-8.4,3.2-12.3l-7.6-9l11.8-15.5l10.7,4.9c3.3-2.6,7-4.8,11-6.4l1-11.7l19.3-2.6L992.2,176L992.2,176z
									 M986.4,202.6c-13.3,0.5-22.8,12.9-19.7,25.8c2.3,9.6,11.2,16.4,21,16c13.3-0.5,22.7-12.9,19.7-25.8
									C1005.1,209.1,996.2,202.3,986.4,202.6z"/>
							</g>
						</g>
					</g>
				</g>
			</g>
		</g>
	</g>
	<g class="st6">
		<g>
			<g>
				<g>
					<g>
						<g>
							<g>
								<path class="st7" d="M941.2,314.4c3.6,0.4,7,1.4,10.2,2.7l7.5-6.3l12.9,9.8l-4.1,8.9c2.1,2.8,3.9,5.8,5.3,9.1l9.8,0.9
									l2.2,16.1l-9.2,3.4c-0.4,3.6-1.4,7-2.7,10.2l6.3,7.5l-9.8,12.9l-8.9-4.1c-2.8,2.1-5.8,3.9-9.1,5.3l-0.9,9.8l-16.1,2.2
									l-3.4-9.2c-3.6-0.4-7-1.4-10.2-2.7l-7.5,6.3l-12.9-9.8l4.1-8.9c-2.1-2.8-3.9-5.8-5.3-9.1l-9.8-0.9l-2.2-16.1l9.2-3.4
									c0.4-3.6,1.4-7,2.7-10.2l-6.3-7.5l9.8-12.9l8.9,4.1c2.8-2.1,5.8-3.9,9.1-5.3l0.9-9.8l16.1-2.2L941.2,314.4L941.2,314.4z
									 M936.4,336.5c-11.1,0.4-18.9,10.7-16.3,21.5c1.9,8,9.3,13.6,17.5,13.3c11-0.4,18.9-10.7,16.3-21.5
									C952,341.9,944.5,336.3,936.4,336.5z"/>
							</g>
						</g>
					</g>
				</g>
			</g>
		</g>
	</g>
	<g>
		<g>
			<g>
				<g>
					<g>
						<g>
							<g>
								<g>
									<path class="st7" d="M885.1,73.4c5.2,0.6,10.2,2,14.9,3.9l10.9-9.2l18.8,14.3l-5.9,13c3.1,4,5.8,8.5,7.8,13.3l14.2,1.3
										l3.2,23.4l-13.4,5c-0.6,5.2-2,10.2-3.9,14.9l9.2,10.9l-14.3,18.8l-13-5.9c-4,3.1-8.5,5.8-13.3,7.8l-1.3,14.2l-23.4,3.2
										l-5-13.4c-5.2-0.6-10.2-2-14.9-3.9l-10.9,9.2L826,179.8l5.9-13c-3.1-4-5.8-8.5-7.8-13.3l-14.2-1.3l-3.2-23.4l13.4-5
										c0.6-5.2,2-10.2,3.9-14.9L814.9,98l14.3-18.8l13,5.9c4-3.1,8.5-5.8,13.3-7.8l1.3-14.2l23.4-3.2L885.1,73.4L885.1,73.4z
										 M878.1,105.7c-16.1,0.6-27.6,15.6-23.8,31.3c2.8,11.6,13.6,19.8,25.5,19.4c16.1-0.6,27.5-15.6,23.8-31.3
										C900.8,113.5,890,105.2,878.1,105.7z"/>
								</g>
							</g>
						</g>
					</g>
				</g>
			</g>
		</g>
	</g>
	<g>
		<g>
			<g>
				<g>
					<g>
						<path class="st7" d="M174.4,528.3c5.6,2.9,10.7,6.5,15.2,10.7l16.2-5.8l15.2,24.1l-12.1,12.2c1.8,5.9,2.9,12,3.2,18.3
							l15.5,7.4l-6.2,27.8l-17.2,0c-2.9,5.6-6.5,10.7-10.7,15.2l5.8,16.2l-24.1,15.2L163,657.5c-5.9,1.8-12,2.9-18.3,3.2l-7.4,15.5
							l-27.8-6.2l0-17.2c-5.6-2.9-10.7-6.5-15.2-10.7l-16.2,5.8l-15.2-24.1L75,611.6c-1.8-5.9-2.9-12-3.2-18.3l-15.5-7.4l6.2-27.8
							l17.2,0c2.9-5.6,6.5-10.7,10.7-15.2l-5.8-16.2l24.1-15.2l12.2,12.1c5.9-1.8,12-2.9,18.3-3.2l7.4-15.5l27.8,6.2L174.4,528.3
							L174.4,528.3z M149.9,561c-16.5-3.7-32.8,6.7-36.5,23.1c-3.7,16.5,6.7,32.8,23.1,36.5c16.5,3.7,32.8-6.7,36.5-23.1
							C176.7,581.1,166.4,564.7,149.9,561z"/>
					</g>
				</g>
			</g>
		</g>
		<g class="st8">
			<g>
				<g>
					<g>
						<path class="st7" d="M174.4,528.3c5.6,2.9,10.7,6.5,15.2,10.7l16.2-5.8l15.2,24.1l-12.1,12.2c1.8,5.9,2.9,12,3.2,18.3
							l15.5,7.4l-6.2,27.8l-17.2,0c-2.9,5.6-6.5,10.7-10.7,15.2l5.8,16.2l-24.1,15.2L163,657.5c-5.9,1.8-12,2.9-18.3,3.2l-7.4,15.5
							l-27.8-6.2l0-17.2c-5.6-2.9-10.7-6.5-15.2-10.7l-16.2,5.8l-15.2-24.1L75,611.6c-1.8-5.9-2.9-12-3.2-18.3l-15.5-7.4l6.2-27.8
							l17.2,0c2.9-5.6,6.5-10.7,10.7-15.2l-5.8-16.2l24.1-15.2l12.2,12.1c5.9-1.8,12-2.9,18.3-3.2l7.4-15.5l27.8,6.2L174.4,528.3
							L174.4,528.3z M149.9,561c-16.5-3.7-32.8,6.7-36.5,23.1c-3.7,16.5,6.7,32.8,23.1,36.5c16.5,3.7,32.8-6.7,36.5-23.1
							C176.7,581.1,166.4,564.7,149.9,561z"/>
					</g>
				</g>
			</g>
		</g>
	</g>
	<g>
		<g>
			<g>
				<g>
					<g>
						<path class="st5" d="M90.6,689.5c3.2,1.7,6.2,3.8,8.8,6.2l9.4-3.4l8.9,14l-7.1,7.1c1.1,3.4,1.7,7,1.9,10.7l9.1,4.3l-3.6,16.2
							l-10,0c-1.7,3.2-3.8,6.2-6.2,8.8l3.4,9.4l-14,8.9l-7.1-7.1c-3.4,1.1-7,1.7-10.7,1.9l-4.3,9.1L52.8,772l0-10
							c-3.2-1.7-6.2-3.8-8.8-6.2l-9.4,3.4l-8.9-14l7.1-7.1c-1.1-3.4-1.7-7-1.9-10.7l-9-4.3l3.6-16.2l10,0c1.7-3.2,3.8-6.2,6.2-8.8
							l-3.4-9.4l14-8.9l7.1,7.1c3.4-1.1,7-1.7,10.7-1.9l4.3-9l16.2,3.6L90.6,689.5L90.6,689.5z M76.3,708.6
							c-9.6-2.2-19.1,3.9-21.3,13.5c-2.2,9.6,3.9,19.1,13.5,21.3c9.6,2.2,19.1-3.9,21.3-13.5C92,720.2,85.9,710.7,76.3,708.6z"/>
					</g>
				</g>
			</g>
		</g>
		<g class="st9">
			<g>
				<g>
					<g>
						<path class="st5" d="M90.6,689.5c3.2,1.7,6.2,3.8,8.8,6.2l9.4-3.4l8.9,14l-7.1,7.1c1.1,3.4,1.7,7,1.9,10.7l9.1,4.3l-3.6,16.2
							l-10,0c-1.7,3.2-3.8,6.2-6.2,8.8l3.4,9.4l-14,8.9l-7.1-7.1c-3.4,1.1-7,1.7-10.7,1.9l-4.3,9.1L52.8,772l0-10
							c-3.2-1.7-6.2-3.8-8.8-6.2l-9.4,3.4l-8.9-14l7.1-7.1c-1.1-3.4-1.7-7-1.9-10.7l-9-4.3l3.6-16.2l10,0c1.7-3.2,3.8-6.2,6.2-8.8
							l-3.4-9.4l14-8.9l7.1,7.1c3.4-1.1,7-1.7,10.7-1.9l4.3-9l16.2,3.6L90.6,689.5L90.6,689.5z M76.3,708.6
							c-9.6-2.2-19.1,3.9-21.3,13.5c-2.2,9.6,3.9,19.1,13.5,21.3c9.6,2.2,19.1-3.9,21.3-13.5C92,720.2,85.9,710.7,76.3,708.6z"/>
					</g>
				</g>
			</g>
		</g>
	</g>
	<g>
		<g>
			<path class="st0" d="M904.1,696.6H189.9c-23,0-41.7-18.7-41.7-41.7V169.5c0-13.3,10.8-24.2,24.2-24.2h749.2
				c13.3,0,24.2,10.8,24.2,24.2v485.5C945.7,678,927.1,696.6,904.1,696.6z"/>
		</g>
	</g>
	
		<linearGradient id="SVGID_2_" gradientUnits="userSpaceOnUse" x1="-89.3033" y1="1502.3602" x2="-64.6001" y2="1553.4751" gradientTransform="matrix(-0.843 0.5379 -0.5907 -0.9258 1808.9159 1925.319)">
		<stop  offset="0" style="stop-color:#3F7AFF"/>
		<stop  offset="1" style="stop-color:#45C4FF"/>
	</linearGradient>
	<path class="st10" d="M989.4,405.7c26-2.3-12,48.7-16.2,62.7c-3.5,11.7-5.2,23.6-4.1,36.2c0.6,7.2,5.7,43.8-11.4,34.7
		c-15.6-8.3-16.5-67.5-13-80.5C949.5,441.1,969.6,407.5,989.4,405.7z"/>
	<path class="st11" d="M973.3,531.4c2.9,3.4,6.4,6.9,8.1,10c0.3,0.5,0.5,1.1,0.7,1.6c0.2,0.9,0.3,1.3-0.4,2
		c-0.3,0.3-1.3,0.5-2.6-0.5c-1.4-1-3.5-3.7-4.2-5.3c0.9,2.3,3.5,6.9,3.6,9.3c0.1,3.6-1.8,7.6-6.5,7.5c-1.9-0.1-3.7-0.9-5.2-2.1
		c-2.5-2.1-5.8-5.5-7.2-8.5c-0.6-1.5-1.5-3.5-2.2-5.8c-0.8-2.7,0.6-5.6,3.1-6.9l5.6-2.7C968.6,528.7,971.5,529.3,973.3,531.4z"/>
	
		<linearGradient id="SVGID_3_" gradientUnits="userSpaceOnUse" x1="1172.0583" y1="-705.5859" x2="1207.4943" y2="-705.5859" gradientTransform="matrix(0.8655 -0.5009 0.5009 0.8655 -651.2238 1446.113)">
		<stop  offset="0" style="stop-color:#3F7AFF"/>
		<stop  offset="1" style="stop-color:#45C4FF"/>
	</linearGradient>
	<path class="st12" d="M34,254.8L34,254.8c-8.5,4.9-19.3,2-24.2-6.5l0,0c-4.9-8.5-2-19.3,6.5-24.2l0,0c8.5-4.9,19.3-2,24.2,6.5l0,0
		C45.4,239.1,42.5,249.9,34,254.8z"/>
	<g>
		<path class="st13" d="M121.3,208.8L68,210c0-13.9,5.4-28.4,15.1-38.3c9.7-9.9,23.5-15.7,37.3-16.1L121.3,208.8z"/>
	</g>
	<path class="st14" d="M532.1,467.9H209.6c-14.9,0-27-12.1-27-27V243.4c0-14.9,12.1-27,27-27h322.5c14.9,0,27,12.1,27,27v197.4
		C559.1,455.8,547,467.9,532.1,467.9z"/>
	<g>
		<path class="st13" d="M945.7,177.3H148.3v-7.5c0-13.5,11-24.5,24.5-24.5h748.5c13.5,0,24.5,11,24.5,24.5V177.3z"/>
	</g>
	<g>
		<path class="st13" d="M203.1,430.7l30.8-44.6c6.3-9.1,18.8-11.2,27.7-4.8l4.3,3.1c10.8,7.7,25.9,2.8,30.2-9.7l15-43.8
			c6.1-17.8,31.3-17.8,37.4,0l7.2,21.2c5.8,17,29.5,18,36.7,1.6l6.3-14.2c6.3-14.1,25.6-15.9,34.4-3.1v0c9.2,13.4,29.7,10.6,35-4.8
			l7-20.5c6.4-18.8,33.5-17.4,37.9,2l26.8,117.6C539.8,430.7,204.1,429.7,203.1,430.7z"/>
	</g>
	<path class="st13" d="M203.1,430.7l30.8-44.6c6.3-9.1,18.8-11.2,27.7-4.8l4.3,3.1c10.8,7.7,25.9,2.8,30.2-9.7l15-43.8
		c6.1-17.8,31.3-17.8,37.4,0l7.2,21.2c5.8,17,29.5,18,36.7,1.6l6.3-14.2c6.3-14.1,25.6-15.9,34.4-3.1v0c9.2,13.4,29.7,10.6,35-4.8
		l7-20.5c6.4-18.8,33.5-17.4,37.9,2l26.8,117.6C539.8,430.7,204.1,429.7,203.1,430.7z"/>
	<g>
		<g>
			<g>
				<g>
					<path class="st15" d="M202.3,431.6l25-73c5.9-17.2,30-17.5,36.3-0.4l12,32.5c5.2,14.1,23.7,17.1,33.1,5.4l9.7-12.1
						c6.5-8,18.1-9.6,26.4-3.5l22.6,16.6c3.3,2.4,7.3,3.7,11.4,3.7h28.8c4.1,0,8.1,1.3,11.4,3.7l21.4,15.7
						c8.8,6.4,21.2,4.3,27.3-4.7l20.1-29.4c0.3-0.4,0.5-0.7,0.8-1.1c8.1-10.2,24.3-8.1,30.1,3.6l21.5,42.7L202.3,431.6"/>
				</g>
			</g>
		</g>
	</g>
	<g>
		<path class="st13" d="M514.1,409.8c-35.9-26.4-52.9,23.9-81.1-13.9l-9.7-12.1c-6.5-8-18.1-9.6-26.4-3.5l-11.2,8.2
			c-10.7,7.8-23.6,12-36.9,12H334c-4.1,0-8.1,1.3-11.4,3.7l-21.4,15.7c-8.8,6.4-14.9,7.3-29-4.5c0,0-15.3-12.4-15.6-12.9
			c-7.5-9.1-23.1-9.1-29.9,0c-1.6,2.2-3.3,4.1-5.1,6.2l-19.2,22.7L514.1,409.8z"/>
	</g>
	<g>
		<path class="st16" d="M540.1,431"/>
		<path class="st16" d="M540.4,431.1l-26.3-21.3c-35.9-26.4-52.9,23.9-81.1-13.9l-9.7-12.1c-6.5-8-18.1-9.6-26.4-3.5l-11.2,8.2
			c-10.7,7.8-23.6,12-36.9,12H334c-4.1,0-8.1,1.3-11.4,3.7l-21.4,15.7c-8.8,6.4-14.9,7.3-29-4.5c0,0-15.3-12.4-15.6-12.9
			c-7.5-9.1-23.1-9.1-29.9,0c-1.6,2.2-3.3,4.1-5.1,6.2l-19.2,22.7"/>
	</g>
	<g>
		<path class="st13" d="M215.4,265.6L215.4,265.6c-3,0-5.4-2.4-5.4-5.4l0,0c0-3,2.4-5.4,5.4-5.4h0c3,0,5.4,2.4,5.4,5.4l0,0
			C220.8,263.2,218.4,265.6,215.4,265.6z"/>
	</g>
	<g>
		<path class="st15" d="M331.1,265.8L331.1,265.8c-3,0-5.4-2.4-5.4-5.4l0,0c0-3,2.4-5.4,5.4-5.4l0,0c3,0,5.4,2.4,5.4,5.4l0,0
			C336.5,263.4,334.1,265.8,331.1,265.8z"/>
	</g>
	<g>
		<path class="st16" d="M446.8,265.8L446.8,265.8c-3,0-5.4-2.4-5.4-5.4l0,0c0-3,2.4-5.4,5.4-5.4h0c3,0,5.4,2.4,5.4,5.4l0,0
			C452.2,263.4,449.8,265.8,446.8,265.8z"/>
	</g>
	<g>
		<path class="st17" d="M839,350.7H593.4c-2.3,0-4.1-1.8-4.1-4.1c0-2.3,1.8-4.1,4.1-4.1H839c2.3,0,4.1,1.8,4.1,4.1
			C843,348.9,841.2,350.7,839,350.7z"/>
	</g>
	<g>
		<path class="st17" d="M839,318.3H593.4c-2.3,0-4.1-1.8-4.1-4.1c0-2.3,1.8-4.1,4.1-4.1H839c2.3,0,4.1,1.8,4.1,4.1
			C843,316.5,841.2,318.3,839,318.3z"/>
	</g>
	<g>
		<path class="st13" d="M711.8,350.7H593.6c-2.4,0-4.3-1.8-4.3-4.1c0-2.3,1.9-4.1,4.3-4.1h118.2c2.4,0,4.3,1.8,4.3,4.1
			C716.2,348.9,714.2,350.7,711.8,350.7z"/>
	</g>
	<g>
		<path class="st13" d="M711.8,409.9H593.6c-2.4,0-4.3-1.8-4.3-4.1c0-2.3,1.9-4.1,4.3-4.1h118.2c2.4,0,4.3,1.8,4.3,4.1
			C716.2,408.1,714.2,409.9,711.8,409.9z"/>
	</g>
	<path class="st18" d="M868.4,347.8c0,1.6-1.2,3-3.6,3c-1.3,0-2.7-0.4-3.5-1.2l0.6-1.1c0.6,0.6,1.7,1,2.9,1c1.4,0,2.3-0.7,2.3-1.7
		c0-1.1-0.7-1.7-2.9-1.7H862l0.5-5h5.4v1.2h-4.2l-0.3,2.6h1.1C867.3,345,868.4,346.1,868.4,347.8z"/>
	<path class="st18" d="M877.5,315.5c0,1.6-1.2,3-3.6,3c-1.3,0-2.7-0.4-3.5-1.2l0.6-1.1c0.6,0.6,1.7,1,2.9,1c1.4,0,2.3-0.7,2.3-1.7
		c0-1.1-0.7-1.7-2.9-1.7h-2.2l0.5-5h5.4v1.2h-4.2l-0.3,2.6h1.1C876.4,312.6,877.5,313.8,877.5,315.5z"/>
	<path class="st18" d="M878.4,343.7c0-1.6,0.9-2.6,2.2-2.6c1.3,0,2.2,1,2.2,2.6c0,1.6-0.9,2.6-2.2,2.6
		C879.3,346.3,878.4,345.2,878.4,343.7z M881.9,343.7c0-1.1-0.5-1.8-1.3-1.8c-0.8,0-1.3,0.7-1.3,1.8c0,1.1,0.5,1.8,1.3,1.8
		C881.4,345.5,881.9,344.8,881.9,343.7z M886.3,341.2h1l-6.5,9.5h-1L886.3,341.2z M884.4,348.2c0-1.6,0.9-2.6,2.2-2.6
		c1.3,0,2.2,1,2.2,2.6c0,1.6-0.9,2.6-2.2,2.6C885.3,350.8,884.4,349.7,884.4,348.2z M887.9,348.2c0-1.1-0.5-1.8-1.3-1.8
		c-0.8,0-1.3,0.7-1.3,1.8c0,1.1,0.5,1.8,1.3,1.8C887.4,350,887.9,349.3,887.9,348.2z"/>
	<g>
		<path class="st17" d="M839,380.7H593.4c-2.3,0-4.1-1.8-4.1-4.1s1.8-4.1,4.1-4.1H839c2.3,0,4.1,1.8,4.1,4.1S841.2,380.7,839,380.7z
			"/>
	</g>
	<g>
		<path class="st13" d="M772.6,380.7h-179c-3,0-4.3-1.8-4.3-4.1s1.3-4.1,2.9-4.1h179c2.9,0,4.7,1.8,4.7,4.1
			C775.9,379.9,772.8,380.7,772.6,380.7z"/>
	</g>
	<path class="st18" d="M868.7,371.1v0.9l-3.9,8.6h-1.4l3.8-8.4h-4.4v1.7h-1.3v-2.9H868.7z"/>
	<path class="st18" d="M869.6,375.9c0-3.1,1.7-4.9,3.9-4.9c2.2,0,3.9,1.8,3.9,4.9c0,3.1-1.7,4.9-3.9,4.9
		C871.3,380.8,869.6,379,869.6,375.9z M876,375.9c0-2.4-1-3.7-2.5-3.7c-1.5,0-2.5,1.2-2.5,3.7c0,2.4,1,3.7,2.5,3.7
		C875,379.6,876,378.3,876,375.9z"/>
	<path class="st18" d="M869.6,346c0-3.1,1.7-4.9,3.9-4.9c2.2,0,3.9,1.8,3.9,4.9c0,3.1-1.7,4.9-3.9,4.9
		C871.3,350.9,869.6,349.1,869.6,346z M876,346c0-2.4-1-3.7-2.5-3.7c-1.5,0-2.5,1.2-2.5,3.7c0,2.4,1,3.7,2.5,3.7
		C875,349.6,876,348.4,876,346z"/>
	<path class="st18" d="M878.6,373.6c0-1.6,0.9-2.6,2.2-2.6c1.3,0,2.2,1,2.2,2.6c0,1.6-0.9,2.6-2.2,2.6
		C879.5,376.2,878.6,375.2,878.6,373.6z M882.1,373.6c0-1.1-0.5-1.8-1.3-1.8c-0.8,0-1.3,0.7-1.3,1.8c0,1.1,0.5,1.8,1.3,1.8
		C881.6,375.5,882.1,374.8,882.1,373.6z M886.5,371.1h1l-6.5,9.5h-1L886.5,371.1z M884.6,378.1c0-1.6,0.9-2.6,2.2-2.6
		c1.3,0,2.2,1,2.2,2.6c0,1.6-0.9,2.6-2.2,2.6C885.5,380.7,884.6,379.7,884.6,378.1z M888.2,378.1c0-1.1-0.5-1.8-1.3-1.8
		c-0.8,0-1.3,0.7-1.3,1.8c0,1.1,0.5,1.8,1.3,1.8C887.6,380,888.2,379.3,888.2,378.1z"/>
	<g>
		<path class="st17" d="M839,409.9H593.4c-2.3,0-4.1-1.8-4.1-4.1c0-2.3,1.8-4.1,4.1-4.1H839c2.3,0,4.1,1.8,4.1,4.1
			C843,408.1,841.2,409.9,839,409.9z"/>
	</g>
	<g>
		<path class="st18" d="M868.4,407.1c0,1.6-1.2,3-3.6,3c-1.3,0-2.7-0.4-3.5-1.2l0.6-1.1c0.6,0.6,1.7,1,2.9,1c1.4,0,2.3-0.7,2.3-1.7
			c0-1.1-0.7-1.7-2.9-1.7H862l0.5-5h5.4v1.2h-4.2l-0.3,2.6h1.1C867.3,404.2,868.4,405.4,868.4,407.1z"/>
		<path class="st18" d="M869.6,405.2c0-3.1,1.7-4.9,3.9-4.9c2.2,0,3.9,1.8,3.9,4.9c0,3.1-1.7,4.9-3.9,4.9
			C871.2,410,869.6,408.3,869.6,405.2z M876,405.2c0-2.4-1-3.7-2.5-3.7c-1.5,0-2.5,1.2-2.5,3.7c0,2.4,1,3.7,2.5,3.7
			C875,408.8,876,407.6,876,405.2z"/>
		<path class="st18" d="M878.5,402.9c0-1.6,0.9-2.6,2.2-2.6c1.3,0,2.2,1,2.2,2.6c0,1.6-0.9,2.6-2.2,2.6
			C879.4,405.5,878.5,404.5,878.5,402.9z M882.1,402.9c0-1.1-0.5-1.8-1.3-1.8c-0.8,0-1.3,0.7-1.3,1.8c0,1.1,0.5,1.8,1.3,1.8
			C881.6,404.7,882.1,404,882.1,402.9z M886.5,400.4h1l-6.5,9.5h-1L886.5,400.4z M884.6,407.4c0-1.6,0.9-2.6,2.2-2.6
			c1.3,0,2.2,1,2.2,2.6c0,1.6-0.9,2.6-2.2,2.6C885.4,410,884.6,409,884.6,407.4z M888.1,407.4c0-1.1-0.5-1.8-1.3-1.8
			c-0.8,0-1.3,0.7-1.3,1.8c0,1.1,0.5,1.8,1.3,1.8C887.6,409.2,888.1,408.5,888.1,407.4z"/>
	</g>
	<g>
		<path class="st17" d="M839,443.4H593.4c-2.3,0-4.1-1.8-4.1-4.1c0-2.3,1.8-4.1,4.1-4.1H839c2.3,0,4.1,1.8,4.1,4.1
			C843,441.6,841.2,443.4,839,443.4z"/>
	</g>
	<g>
		<path class="st18" d="M868.4,440.5c0,1.6-1.2,3-3.6,3c-1.3,0-2.7-0.4-3.5-1.2l0.6-1.1c0.6,0.6,1.7,1,2.9,1c1.4,0,2.3-0.7,2.3-1.7
			c0-1.1-0.7-1.7-2.9-1.7H862l0.5-5h5.4v1.2h-4.2l-0.3,2.6h1.1C867.3,437.6,868.4,438.8,868.4,440.5z"/>
		<path class="st18" d="M869.6,438.6c0-3.1,1.7-4.9,3.9-4.9c2.2,0,3.9,1.8,3.9,4.9c0,3.1-1.7,4.9-3.9,4.9
			C871.2,443.5,869.6,441.7,869.6,438.6z M876,438.6c0-2.4-1-3.7-2.5-3.7c-1.5,0-2.5,1.2-2.5,3.7c0,2.4,1,3.7,2.5,3.7
			C875,442.3,876,441.1,876,438.6z"/>
		<path class="st18" d="M878.5,436.4c0-1.6,0.9-2.6,2.2-2.6c1.3,0,2.2,1,2.2,2.6c0,1.6-0.9,2.6-2.2,2.6
			C879.4,439,878.5,437.9,878.5,436.4z M882.1,436.4c0-1.1-0.5-1.8-1.3-1.8c-0.8,0-1.3,0.7-1.3,1.8s0.5,1.8,1.3,1.8
			C881.6,438.2,882.1,437.5,882.1,436.4z M886.5,433.8h1l-6.5,9.5h-1L886.5,433.8z M884.6,440.9c0-1.6,0.9-2.6,2.2-2.6
			c1.3,0,2.2,1,2.2,2.6c0,1.6-0.9,2.6-2.2,2.6C885.4,443.5,884.6,442.4,884.6,440.9z M888.1,440.9c0-1.1-0.5-1.8-1.3-1.8
			c-0.8,0-1.3,0.7-1.3,1.8c0,1.1,0.5,1.8,1.3,1.8C887.6,442.7,888.1,442,888.1,440.9z"/>
	</g>
	<g>
		<g>
			<path class="st13" d="M756.1,318.3H593.4c-2.3,0-4.1-1.8-4.1-4.1s1.8-4.1,4.1-4.1h162.7c2.3,0,4.1,1.8,4.1,4.1
				S758.3,318.3,756.1,318.3z"/>
		</g>
	</g>
	<path class="st18" d="M869.1,315.4c0,1.8-1.5,3-3.4,3c-2.6,0-4-1.7-4-4.8c0-3.3,1.8-5,4.5-5c0.9,0,1.8,0.2,2.4,0.6l-0.5,1.1
		c-0.5-0.3-1.1-0.4-1.8-0.4c-1.9,0-3.2,1.2-3.2,3.6c0,0.1,0,0.2,0,0.3c0.5-0.8,1.6-1.3,2.7-1.3C867.8,312.5,869.1,313.7,869.1,315.4
		z M867.8,315.5c0-1.1-0.8-1.8-2.2-1.8c-1.3,0-2.2,0.8-2.2,1.9c0,1,0.8,1.8,2.3,1.8C866.9,317.3,867.8,316.6,867.8,315.5z"/>
	<path class="st18" d="M879.1,311.3c0-1.6,0.9-2.6,2.2-2.6c1.3,0,2.2,1,2.2,2.6c0,1.6-0.9,2.6-2.2,2.6
		C880,313.9,879.1,312.9,879.1,311.3z M882.6,311.3c0-1.1-0.5-1.8-1.3-1.8c-0.8,0-1.3,0.7-1.3,1.8c0,1.1,0.5,1.8,1.3,1.8
		C882.1,313.1,882.6,312.5,882.6,311.3z M887.1,308.8h1l-6.5,9.5h-1L887.1,308.8z M885.1,315.8c0-1.6,0.9-2.6,2.2-2.6
		c1.3,0,2.2,1,2.2,2.6c0,1.6-0.9,2.6-2.2,2.6C886,318.4,885.1,317.4,885.1,315.8z M888.7,315.8c0-1.1-0.5-1.8-1.3-1.8
		c-0.8,0-1.3,0.7-1.3,1.8c0,1.1,0.5,1.8,1.3,1.8C888.2,317.6,888.7,316.9,888.7,315.8z"/>
	<g>
		<g>
			<g>
				<path class="st17" d="M201.8,630.9L201.8,630.9c-3.6,0-6.5-2.9-6.5-6.5V502.9c0-3.6,2.9-6.5,6.5-6.5l0,0c3.6,0,6.5,2.9,6.5,6.5
					v121.5C208.3,628,205.4,630.9,201.8,630.9z"/>
			</g>
			<g>
				<path class="st13" d="M201.8,631.5L201.8,631.5c-3.6,0-6.5-2.9-6.5-6.5v-78.3c0-3.6,2.9-6.5,6.5-6.5l0,0c3.6,0,6.5,2.9,6.5,6.5
					V625C208.3,628.6,205.4,631.5,201.8,631.5z"/>
			</g>
		</g>
	</g>
	<g>
		<g>
			<g>
				<path class="st17" d="M227.7,630.9L227.7,630.9c-3.6,0-6.5-2.9-6.5-6.5V502.9c0-3.6,2.9-6.5,6.5-6.5l0,0c3.6,0,6.5,2.9,6.5,6.5
					v121.5C234.2,628,231.3,630.9,227.7,630.9z"/>
			</g>
			<g>
				<path class="st13" d="M227.7,631.5L227.7,631.5c-3.6,0-6.5-2.9-6.5-6.5V522c0-3.6,2.9-6.5,6.5-6.5l0,0c3.6,0,6.5,2.9,6.5,6.5
					v103C234.2,628.6,231.3,631.5,227.7,631.5z"/>
			</g>
		</g>
	</g>
	<g>
		<g>
			<g>
				<path class="st17" d="M253.6,630.9L253.6,630.9c-3.6,0-6.5-2.9-6.5-6.5V502.9c0-3.6,2.9-6.5,6.5-6.5l0,0c3.6,0,6.5,2.9,6.5,6.5
					v121.5C260.1,628,257.2,630.9,253.6,630.9z"/>
			</g>
			<g>
				<path class="st13" d="M253.6,631.5L253.6,631.5c-3.6,0-6.5-2.9-6.5-6.5v-59.8c0-3.6,2.9-6.5,6.5-6.5l0,0c3.6,0,6.5,2.9,6.5,6.5
					V625C260.1,628.6,257.2,631.5,253.6,631.5z"/>
			</g>
		</g>
	</g>
	<g>
		<g>
			<g>
				<path class="st17" d="M279.5,630.9L279.5,630.9c-3.6,0-6.5-2.9-6.5-6.5V502.9c0-3.6,2.9-6.5,6.5-6.5l0,0c3.6,0,6.5,2.9,6.5,6.5
					v121.5C286,628,283.1,630.9,279.5,630.9z"/>
			</g>
			<g>
				<path class="st13" d="M279.5,631.5L279.5,631.5c-3.6,0-6.5-2.9-6.5-6.5V522c0-3.6,2.9-6.5,6.5-6.5l0,0c3.6,0,6.5,2.9,6.5,6.5
					v103C286,628.6,283.1,631.5,279.5,631.5z"/>
			</g>
		</g>
	</g>
	<g>
		<g>
			<g>
				<path class="st17" d="M305.4,630.9L305.4,630.9c-3.6,0-6.5-2.9-6.5-6.5V502.9c0-3.6,2.9-6.5,6.5-6.5l0,0c3.6,0,6.5,2.9,6.5,6.5
					v121.5C311.9,628,309,630.9,305.4,630.9z"/>
			</g>
			<g>
				<path class="st13" d="M305.4,631.5L305.4,631.5c-3.6,0-6.5-2.9-6.5-6.5v-83.3c0-3.6,2.9-6.5,6.5-6.5l0,0c3.6,0,6.5,2.9,6.5,6.5
					V625C311.9,628.6,309,631.5,305.4,631.5z"/>
			</g>
		</g>
	</g>
	<g>
		<g>
			<path class="st17" d="M331.3,630.9L331.3,630.9c-3.6,0-6.5-2.9-6.5-6.5V502.9c0-3.6,2.9-6.5,6.5-6.5l0,0c3.6,0,6.5,2.9,6.5,6.5
				v121.5C337.8,628,334.9,630.9,331.3,630.9z"/>
		</g>
		<g>
			<path class="st13" d="M331.3,630.9L331.3,630.9c-3.6,0-6.5-2.9-6.5-5.9v-59.8c0-4.1,2.9-7,6.5-7l0,0c3.6,0,6.5,2.9,6.5,6.5v59.8
				C337.8,628,334.9,630.9,331.3,630.9z"/>
		</g>
	</g>
	<g>
		<g>
			<g>
				<path class="st17" d="M357.2,630.9L357.2,630.9c-3.6,0-6.5-2.9-6.5-6.5V502.9c0-3.6,2.9-6.5,6.5-6.5l0,0c3.6,0,6.5,2.9,6.5,6.5
					v121.5C363.7,628,360.8,630.9,357.2,630.9z"/>
			</g>
			<g>
				<path class="st13" d="M357.2,631.5L357.2,631.5c-3.6,0-6.5-2.9-6.5-6.5V515.8c0-3.6,2.9-6.5,6.5-6.5l0,0c3.6,0,6.5,2.9,6.5,6.5
					V625C363.7,628.6,360.8,631.5,357.2,631.5z"/>
			</g>
		</g>
	</g>
	<g>
		<g>
			<g>
				<path class="st17" d="M383.1,630.9L383.1,630.9c-3.6,0-6.5-2.9-6.5-6.5V502.9c0-3.6,2.9-6.5,6.5-6.5l0,0c3.6,0,6.5,2.9,6.5,6.5
					v121.5C389.6,628,386.7,630.9,383.1,630.9z"/>
			</g>
			<g>
				<path class="st13" d="M383.1,631.5L383.1,631.5c-3.6,0-6.5-2.9-6.5-6.5v-47.5c0-3.6,2.9-6.5,6.5-6.5l0,0c3.6,0,6.5,2.9,6.5,6.5
					V625C389.6,628.6,386.7,631.5,383.1,631.5z"/>
			</g>
		</g>
	</g>
	<g>
		<g>
			<g>
				<path class="st17" d="M409,630.9L409,630.9c-3.6,0-6.5-2.9-6.5-6.5V502.9c0-3.6,2.9-6.5,6.5-6.5l0,0c3.6,0,6.5,2.9,6.5,6.5
					v121.5C415.4,628,412.5,630.9,409,630.9z"/>
			</g>
			<g>
				<path class="st13" d="M409,630.9L409,630.9c-3.6,0-6.5-2.9-6.5-5.9v-16.7c0-4.1,2.9-7,6.5-7l0,0c3.6,0,6.5,2.9,6.5,6.5v16.7
					C415.4,628,412.5,630.9,409,630.9z"/>
			</g>
		</g>
	</g>
	<g>
		<path class="st17" d="M434.9,630.9L434.9,630.9c-3.6,0-6.5-2.9-6.5-6.5V502.9c0-3.6,2.9-6.5,6.5-6.5l0,0c3.6,0,6.5,2.9,6.5,6.5
			v121.5C441.3,628,438.4,630.9,434.9,630.9z"/>
	</g>
	<g>
		<path class="st13" d="M434.9,630.9L434.9,630.9c-3.6,0-6.5-2.9-6.5-5.9v-59.8c0-4.1,2.9-7,6.5-7l0,0c3.6,0,6.5,2.9,6.5,6.5v59.8
			C441.3,628,438.4,630.9,434.9,630.9z"/>
	</g>
	<path class="st19" d="M531.1,436.9h10.5v-10.7h-3.8c0.2,0.7,0.3,1.3,0.3,2.1c0,3.8-3.1,6.9-6.9,6.9L531.1,436.9z"/>
	<path class="st13" d="M289.9,278.9h-76.8c-1.2,0-2.2-1-2.2-2.2v-3.3c0-1.2,1-2.2,2.2-2.2h76.8c1.2,0,2.2,1,2.2,2.2v3.3
		C292.2,277.9,291.2,278.9,289.9,278.9z"/>
	<path class="st15" d="M405.8,278.3h-76.8c-1.2,0-2.2-1-2.2-2.2v-3.3c0-1.2,1-2.2,2.2-2.2h76.8c1.2,0,2.2,1,2.2,2.2v3.3
		C408,277.3,407,278.3,405.8,278.3z"/>
	<path class="st16" d="M522.1,278.3h-76.8c-1.2,0-2.2-1-2.2-2.2v-3.3c0-1.2,1-2.2,2.2-2.2h76.8c1.2,0,2.2,1,2.2,2.2v3.3
		C524.4,277.3,523.4,278.3,522.1,278.3z"/>
	<g>
		<path class="st13" d="M471.1,607.6c0-4,1.2-8,3.4-11.3l10.5-15.8c2.1-3,6.4-3.7,9.3-1.5l9.6,7.3c3.1,2.4,7.7,1.5,9.6-2l27.8-48.2
			c2.3-4,8-4.4,10.8-0.8l17.4,22c2.8,3.6,8.3,3.3,10.7-0.5l12.7-19.9c2.6-4.2,8.8-4,11.2,0.2l10.5,18.1c2.5,4.3,8.6,4.4,11.2,0.2
			l35.8-56.1c2.5-4,8.4-4.1,11-0.1l59.2,88.5c2.4,3.5,7.4,3.9,10.3,0.8l35.9-39.6c2.5-2.8,6.9-2.9,9.5-0.2l28.6,28.7
			c3.1,3.1,8.2,2.4,10.3-1.4l51.2-88.6c3.4-5.8,12.3-3.4,12.3,3.3v123.8l-418.9,11.6V607.6z"/>
	</g>
	<path class="st20" d="M994.8,355.5c4-0.7,8.1-10.2,12.1-9.6s8.1,2.6,10,6.2c1.8,3.4,1.5,7.5,1,11.4c1.8-1.1,4.3-0.5,5.7,1.1
		c1.4,1.6,1.7,4,1,6c-0.7,2-2.3,3.6-4.2,4.7c-0.8,3.4-1.3,6.5-2.1,9.9c7.9,0.8,15.3,5.4,23.2,4.5c5.1-0.6,9.8-3.4,13.5-7
		c10.8-10.4,14.2-27.7,8.4-41.5s-20.7-23.2-35.7-22.7c-11.2,0.4-20.6,3.1-29.9,9.3c-2.5,1.6-6.3,5.9-7.3,8.7
		C986.6,347.4,991.9,353,994.8,355.5z"/>
	<g>
		<g>
			<path class="st20" d="M999.7,665.3c0-34,14.7-64.4,24.1-86.8c9.5-22.5,22-23,27.8-64.6c0,0-63.2-15.8-71.1-2.6
				c0,0-11.7,65.7-13.2,78.8c-1.4,13.1-2.3,53.8-3,62c-0.7,8.2,1.6,80.8,2.5,98c0,0,6.9,3.5,9.4,3.8c3,0.3,12-1.9,12-1.9"/>
		</g>
	</g>
	<g>
		<g>
			<path class="st20" d="M1051.7,513.9c0,0,8,24.8,6.9,46.2c-1.1,21.4,4.1,35.2,6.3,57.6c2.4,24.9,12,83.9,12.4,97.3
				c0.4,13.3,1.8,35.3,1.8,35.3s-10.1,2.9-13.5,2.7c-3.1-0.2-11.6-4-11.6-4s-13.8-80.8-18-91.3c-4.2-10.5-25.1-75.9-25.8-84.4
				C1009.4,564.8,1051.7,513.9,1051.7,513.9z"/>
		</g>
	</g>
	<g>
		<g>
			<path class="st11" d="M1006.1,391.9c-20.8-12.6-19.2-64.6,18.5-54.3C1061.8,347.9,1041.5,413.4,1006.1,391.9z"/>
		</g>
	</g>
	<g>
		<g>
			<path class="st11" d="M1007.9,388.9c0,0-1.7,10.8-3.7,15.8c-1,2.5,5.1,24.1,11.6,24c6.8-0.1,14-22,14-22s-5.9-10.4-2.2-19
				C1031.3,379.1,1007.9,388.9,1007.9,388.9z"/>
		</g>
	</g>
	<path class="st21" d="M966.8,748.9c0,0-20.3,9.4-24.5,11.6c-0.1,0.1-0.2,0.1-0.3,0.2l-2.9,1.8c-1.8,1.1-2.6,3.2-2.1,5.2l0,0
		c0.6,2.3,2.7,3.8,5.1,3.6l29.6-2.8c0.2,0,0.4,0,0.6,0l11.7,0.5c2.8,0.1,5.1-2.2,4.9-5l-0.6-12"/>
	<path class="st21" d="M1052.7,748.8l-17.2,7.4c-1.7,0.7-3.1,2.8-3.1,4.6v0c0,2.8,2.3,5.1,5.1,5.1h23.4h4.7h8.4
		c2.8,0,5.1-2.3,5.1-5.1v-10.7l-23.9-1.8C1054.4,748.4,1053.3,748.5,1052.7,748.8z"/>
	<path class="st20" d="M992.9,345.3c0,0,34.1,7.3,46.2-5.5l-20.8-11.4l-23,4L992.9,345.3z"/>
	<path class="st20" d="M1050.2,382.6l-4.5-50.6l-17.3,9.9c0.4,7.7-8,33.4,13.7,40.8"/>
	<path class="st22" d="M857.5,703.3"/>
	<g>
		<path class="st22" d="M472,623.7l13-18.5c2.1-3,6.4-3.7,9.3-1.5l9.6,7.3c3.1,2.4,7.7,1.5,9.6-2l27.8-48.2c2.3-4,8-4.4,10.8-0.8
			l17.4,22c2.8,3.6,8.3,3.3,10.7-0.5l12.7-19.9c2.6-4.2,8.8-4,11.2,0.2l10.5,18.1c2.5,4.3,8.6,4.4,11.2,0.2l35.8-56.1
			c2.5-4,8.4-4.1,11-0.1l59.2,88.5c2.4,3.5,7.4,3.9,10.3,0.8l35.9-39.6c2.5-2.8,6.9-2.9,9.5-0.2l28.6,28.7c3.1,3.1,8.2,2.4,10.3-1.4
			l51.2-88.6c3.4-5.8,12.3-3.4,12.3,3.3v99.9c0,8.8-7.1,15.9-15.9,15.9H475.9C472,631.3,469.7,626.9,472,623.7z"/>
	</g>
	<path class="st22" d="M1010.3,530.3c-8.2-0.2-33.2-4.2-33.2-4.2s1.6-46.5,0.4-52.7c-3.8-19.7-2.6-59.1,8.2-66.4
		c5.8-4,19.1-4.8,19.1-4.8l0.7,0.6c5.3,5.1,13.5,6,19.8,2l3-1.9l27,6.7c0,0-10.5,46-8.6,55.5s1.9,9.5,1.9,9.5l9.4,40.5
		c1.3,5.7,0.9,11.8-1.3,17.2l0,0C1056.6,532.5,1028.7,530.8,1010.3,530.3z"/>
	<g>
		<path class="st13" d="M711.8,409.9H593.6c-2.4,0-4.3-1.8-4.3-4.1c0-2.3,1.9-4.1,4.3-4.1h118.2c2.4,0,4.3,1.8,4.3,4.1
			C716.2,408.1,714.2,409.9,711.8,409.9z"/>
	</g>
	<g>
		<path class="st13" d="M651.8,442.9h-58.2c-2.4,0-4.3-1.8-4.3-4.1c0-2.3,1.9-4.1,4.3-4.1h58.2c2.4,0,4.3,1.8,4.3,4.1
			C656.2,441.1,654.2,442.9,651.8,442.9z"/>
	</g>
	<g>
		<g>
			<path class="st20" d="M823.1,497.1c-37.2,16.9-82.1,3.3-103.3-32.7c-22.7-38.5-9.8-88.3,28.7-111c18.7-11,40.5-14.1,61.4-8.6
				c21,5.4,38.6,18.7,49.5,37.3l0,0c22.7,38.5,9.8,88.3-28.7,111C828.3,494.6,825.7,495.9,823.1,497.1z M761.3,360.5
				c-2.3,1-4.5,2.2-6.6,3.4c-32.7,19.3-43.7,61.6-24.4,94.3c19.3,32.7,61.6,43.7,94.3,24.4c32.7-19.3,43.7-61.6,24.4-94.3
				c-9.3-15.9-24.3-27.1-42.1-31.7C791.5,352.6,775.6,354,761.3,360.5z"/>
		</g>
		<g>
			<path class="st20" d="M1056.4,567.6c-1.6,0.7-3.4,0.8-5.1,0L852,470.2c-3-1.4-4.3-5-2.9-8.1c1.4-3,5-4.3,8.1-2.9l199.3,97.3
				c3,1.4,4.3,5,2.9,8.1C1058.7,566,1057.6,567,1056.4,567.6z"/>
		</g>
	</g>
	<path class="st23" d="M1026.6,522.8l-4.6,3.3l-12.1,1.6c-1.5-0.2-10.4,0.5-7.4,2.6c0,0,0,0,0.1,0c3.1,2,3.5,6.4,0.6,8.8
		c-4.4,3.7-7.7,7.1-7.7,7.3c-1,4.2,8.6-1.7,10.3-2.5c0.8-0.4-2.7,2.5,1.2,3.1c1.2,0.2,1.2-0.6,2.7-1c0.9-0.3-2.6,1.9,0.5,2.4
		c2.1,0.4,2.1-0.2,3.3-0.6c0.4-0.1-0.5,0.7-0.3,1.3c0.2,0.5,1.3,0.7,2.1,0.3c10.1-5.2,6.3-9.7,19.3-15.3
		C1042,530.7,1029.6,523.1,1026.6,522.8"/>
	
		<linearGradient id="SVGID_4_" gradientUnits="userSpaceOnUse" x1="3806.3472" y1="4051.0701" x2="3935.3892" y2="4051.0701" gradientTransform="matrix(6.877563e-02 -0.9976 0.9976 6.877918e-02 -3257.4941 4057.0083)">
		<stop  offset="0" style="stop-color:#3F7AFF"/>
		<stop  offset="1" style="stop-color:#45C4FF"/>
	</linearGradient>
	<path class="st24" d="M1050,409.5c0,0,36.3-7.1,23.4,83.6c-1.9,13.4-28.7,36.2-37.5,43.4c-1.6,1.3-3.9,1.2-5.4-0.3
		c-3.6-3.6-9.7-10.2-9.1-13.7c0,0,14.2-32.9,26.5-41.7c3.6-2.6-8.3-39.9-7.1-52.4C1042.1,416.1,1050,409.5,1050,409.5z"/>
	<g class="st25">
		<path class="st26" d="M648,253.6c0,13.6-11,24.7-24.7,24.7c-13.6,0-24.7-11-24.7-24.7s11-24.7,24.7-24.7"/>
		<path class="st27" d="M623.3,228.9c13.6,0,24.7,11,24.7,24.7"/>
	</g>
	<g class="st25">
		<path class="st26" d="M780.4,273.1c-5.8-4.5-9.5-11.6-9.5-19.5c0-13.6,11-24.7,24.7-24.7"/>
		<path class="st28" d="M820.2,253.6c0,13.6-11,24.7-24.7,24.7c-5.7,0-11-1.9-15.1-5.2"/>
		<path class="st28" d="M813,236.2c4.5,4.5,7.2,10.6,7.2,17.4"/>
		<path class="st27" d="M795.5,228.9c6.8,0,13,2.8,17.4,7.2"/>
	</g>
	<g class="st25">
		<path class="st26" d="M709.4,278.3c-13.6,0-24.7-11-24.7-24.7s11-24.7,24.7-24.7"/>
		<path class="st28" d="M734.1,253.6c0,13.6-11,24.7-24.7,24.7"/>
		<path class="st27" d="M709.4,228.9c13.6,0,24.7,11,24.7,24.7"/>
	</g>
</g>
</svg>
